<svg width="32" height="32" viewBox="0 0 32 32" fill="none" xmlns="http://www.w3.org/2000/svg">
  <!-- Simplified 'dx' for favicon -->
  <!-- Letter 'd' -->
  <rect x="0" y="2" width="2" height="2" fill="#8AE051"/>
  <rect x="2" y="2" width="2" height="2" fill="#8AE051"/>
  <rect x="4" y="2" width="2" height="2" fill="#8AE051"/>
  <rect x="6" y="2" width="2" height="2" fill="#8AE051"/>
  
  <rect x="0" y="4" width="2" height="2" fill="#8AE051"/>
  <rect x="6" y="4" width="2" height="2" fill="#8AE051"/>
  
  <rect x="0" y="6" width="2" height="2" fill="#8AE051"/>
  <rect x="6" y="6" width="2" height="2" fill="#8AE051"/>
  
  <rect x="0" y="8" width="2" height="2" fill="#8AE051"/>
  <rect x="2" y="10" width="2" height="2" fill="#8AE051"/>
  <rect x="4" y="10" width="2" height="2" fill="#8AE051"/>
  <rect x="6" y="10" width="2" height="2" fill="#8AE051"/>
  <rect x="8" y="8" width="2" height="2" fill="#8AE051"/>
  
  <!-- Letter 'x' -->
  <rect x="12" y="2" width="2" height="2" fill="#8AE051"/>
  <rect x="18" y="2" width="2" height="2" fill="#8AE051"/>
  
  <rect x="14" y="4" width="2" height="2" fill="#8AE051"/>
  <rect x="16" y="4" width="2" height="2" fill="#8AE051"/>
  
  <rect x="16" y="6" width="2" height="2" fill="#8AE051"/>
  
  <rect x="12" y="10" width="2" height="2" fill="#8AE051"/>
  <rect x="14" y="8" width="2" height="2" fill="#8AE051"/>
  <rect x="18" y="10" width="2" height="2" fill="#8AE051"/>
</svg>