<svg width="120" height="48" viewBox="0 0 120 48" fill="none" xmlns="http://www.w3.org/2000/svg">
  <!-- Letter 'd' -->
  <rect x="0" y="0" width="8" height="8" fill="#1F2937"/>
  <rect x="8" y="0" width="8" height="8" fill="#1F2937"/>
  <rect x="16" y="0" width="8" height="8" fill="#1F2937"/>
  <rect x="24" y="0" width="8" height="8" fill="#1F2937"/>
  
  <rect x="0" y="8" width="8" height="8" fill="#1F2937"/>
  <rect x="24" y="8" width="8" height="8" fill="#1F2937"/>
  
  <rect x="0" y="16" width="8" height="8" fill="#1F2937"/>
  <rect x="24" y="16" width="8" height="8" fill="#1F2937"/>
  
  <rect x="0" y="24" width="8" height="8" fill="#1F2937"/>
  <rect x="8" y="32" width="8" height="8" fill="#1F2937"/>
  <rect x="16" y="32" width="8" height="8" fill="#1F2937"/>
  <rect x="24" y="32" width="8" height="8" fill="#1F2937"/>
  <rect x="32" y="24" width="8" height="8" fill="#1F2937"/>
  
  <!-- Letter 'x' -->
  <rect x="40" y="0" width="8" height="8" fill="#1F2937"/>
  <rect x="64" y="0" width="8" height="8" fill="#1F2937"/>
  
  <rect x="48" y="8" width="8" height="8" fill="#1F2937"/>
  <rect x="56" y="8" width="8" height="8" fill="#1F2937"/>
  
  <rect x="56" y="16" width="8" height="8" fill="#1F2937"/>
  
  <rect x="40" y="32" width="8" height="8" fill="#1F2937"/>
  <rect x="48" y="24" width="8" height="8" fill="#1F2937"/>
  <rect x="64" y="32" width="8" height="8" fill="#1F2937"/>
</svg>